<?xml version="1.0" standalone="no"?>
<!DOCTYPE svg PUBLIC "-//W3C//DTD SVG 20010904//EN"
 "http://www.w3.org/TR/2001/REC-SVG-20010904/DTD/svg10.dtd">
<svg version="1.0" xmlns="http://www.w3.org/2000/svg"
 width="1080.000000pt" height="1080.000000pt" viewBox="0 0 1080.000000 1080.000000"
 preserveAspectRatio="xMidYMid meet">
<metadata>
Created by potrace 1.14, written by Peter Selinger 2001-2017
</metadata>
<g transform="translate(0.000000,1080.000000) scale(0.100000,-0.100000)"
fill="#000000" stroke="none">
<path d="M5158 9224 c-3 -2 -33 -6 -69 -9 -89 -8 -178 -20 -219 -29 -8 -1 -33
-6 -55 -11 -107 -21 -198 -45 -210 -55 -7 -6 -14 -8 -17 -5 -2 3 -49 -10 -104
-29 -103 -35 -124 -43 -212 -82 -29 -13 -57 -24 -62 -24 -6 0 -10 -5 -10 -12
0 -6 -3 -8 -7 -5 -3 4 -12 2 -20 -4 -7 -6 -13 -9 -13 -5 0 3 -9 -2 -20 -12
-12 -9 -24 -17 -28 -17 -11 0 -143 -76 -194 -112 -26 -18 -52 -33 -57 -33 -5
0 -11 -3 -13 -8 -1 -4 -37 -32 -78 -62 -41 -29 -80 -59 -86 -64 -6 -6 -33 -29
-60 -51 -26 -22 -71 -63 -100 -91 -29 -29 -55 -49 -58 -46 -4 3 -6 1 -6 -4 0
-6 -19 -31 -42 -56 -79 -86 -193 -224 -223 -270 -5 -9 -26 -40 -46 -69 -55
-81 -116 -182 -123 -207 -4 -12 -12 -22 -17 -22 -5 0 -9 -8 -9 -17 0 -9 -6
-24 -13 -32 -8 -9 -21 -34 -29 -56 -9 -22 -27 -65 -41 -95 -66 -146 -133 -369
-167 -555 -28 -154 -35 -242 -35 -450 0 -182 3 -241 21 -375 5 -42 48 -262 60
-305 3 -11 6 -24 8 -30 6 -25 49 -162 56 -180 4 -11 18 -45 30 -75 31 -80 34
-87 81 -185 57 -119 125 -236 201 -348 35 -51 65 -94 68 -97 3 -3 25 -30 50
-60 25 -30 54 -66 65 -79 35 -43 219 -225 270 -268 28 -23 60 -50 72 -60 11
-10 31 -25 43 -33 12 -8 28 -20 34 -25 19 -18 189 -129 221 -145 17 -8 32 -17
35 -20 3 -3 28 -17 55 -30 28 -14 52 -28 55 -31 6 -6 41 -22 53 -23 4 -1 11
-7 16 -14 5 -8 10 -12 12 -10 4 3 35 -9 114 -43 27 -11 79 -32 85 -34 9 -2
174 -56 190 -62 17 -7 35 -11 70 -17 14 -2 26 -5 28 -6 2 -3 5 -4 52 -13 19
-4 46 -10 60 -13 90 -19 202 -34 291 -38 30 -2 61 -6 67 -10 7 -4 12 -2 12 4
0 7 6 8 18 1 13 -7 23 -6 30 1 7 7 12 8 12 2 0 -12 282 -5 385 10 17 2 50 7
75 10 44 5 60 8 110 20 14 3 36 8 50 10 14 3 36 8 50 11 14 3 39 8 55 11 17 3
42 11 58 19 15 7 25 10 22 5 -3 -5 21 2 54 15 33 12 62 20 65 17 3 -3 6 0 6 6
0 6 7 9 15 6 8 -4 15 -2 15 3 0 5 7 10 15 11 8 1 22 3 30 4 8 1 15 5 15 9 0 4
11 10 25 13 13 3 37 11 52 18 15 6 34 12 42 14 8 1 17 7 20 12 3 5 18 12 34
16 15 3 27 11 27 16 0 6 6 10 13 10 22 0 332 182 357 210 3 3 22 16 42 30 21
14 38 28 38 33 0 4 5 7 11 7 7 0 22 11 35 26 13 14 24 22 24 19 0 -8 38 27
178 167 114 113 182 186 182 194 0 4 14 21 54 67 36 42 184 273 217 337 18 36
35 67 39 70 4 3 10 17 13 32 4 15 14 34 23 42 8 9 13 16 10 16 -2 0 8 28 23
63 16 34 39 91 51 127 12 36 26 74 31 85 11 25 76 279 82 320 5 29 11 69 22
130 3 17 8 57 10 90 10 120 14 155 20 165 3 6 3 10 -2 10 -4 0 -8 62 -9 138
-1 75 -4 166 -8 202 -3 36 -8 86 -11 112 -2 25 -7 58 -10 72 -3 14 -8 38 -11
53 -3 15 -6 40 -7 55 -1 15 -5 28 -9 28 -5 0 -8 9 -8 20 0 10 -7 45 -16 77 -8
32 -17 65 -19 73 -37 144 -161 439 -233 555 -14 22 -24 40 -22 40 9 0 -150
227 -221 316 -87 108 -245 271 -338 349 -30 25 -60 51 -67 58 -7 6 -15 12 -18
12 -6 0 -36 24 -61 48 -8 6 -16 12 -19 12 -3 0 -29 18 -58 40 -29 22 -59 40
-66 40 -7 0 -11 4 -8 8 3 5 -10 15 -29 22 -19 8 -35 17 -35 22 0 4 -5 8 -11 8
-6 0 -24 9 -40 21 -16 11 -29 17 -29 13 0 -4 -8 -1 -17 7 -22 18 -220 115
-255 124 -5 2 -9 3 -10 5 -2 1 -12 3 -22 5 -10 2 -23 10 -27 17 -5 7 -9 10 -9
6 0 -4 -15 -1 -32 7 -18 7 -36 14 -40 14 -9 2 -13 3 -88 26 -30 9 -62 18 -70
20 -8 2 -42 10 -75 18 -33 9 -73 18 -90 21 -16 2 -30 5 -30 6 0 1 -13 4 -30 5
-16 2 -43 6 -60 9 -50 11 -118 19 -157 19 -21 0 -38 4 -38 8 0 12 -23 7 -32
-6 -5 -6 -8 -5 -8 3 0 10 -37 12 -164 11 -90 0 -166 -2 -168 -5z m262 -114 c3
-1 32 -3 65 -5 86 -5 197 -18 253 -29 25 -5 81 -14 127 -21 11 -2 20 -4 20 -5
0 -1 11 -3 24 -6 13 -2 49 -12 80 -21 31 -9 58 -18 61 -18 3 -1 12 -4 20 -7 8
-3 44 -16 80 -28 36 -11 74 -25 85 -30 28 -13 94 -39 100 -40 30 -4 323 -169
404 -228 78 -55 146 -108 149 -114 2 -5 8 -8 13 -8 21 0 359 -336 359 -358 0
-2 6 -9 13 -16 16 -18 49 -59 62 -78 6 -8 41 -61 80 -119 88 -130 198 -349
253 -499 23 -63 44 -124 47 -135 3 -11 16 -62 29 -114 83 -315 103 -715 50
-1011 -2 -14 -7 -43 -10 -65 -3 -22 -9 -53 -14 -70 -5 -16 -12 -43 -14 -60 -7
-36 -48 -177 -78 -260 -79 -225 -247 -530 -376 -684 -9 -10 -28 -34 -42 -51
-90 -115 -246 -270 -385 -381 -68 -54 -219 -159 -229 -159 -3 0 -25 -13 -49
-30 -108 -72 -404 -207 -497 -225 -8 -2 -15 -4 -15 -5 0 -1 -11 -4 -25 -6 -13
-2 -28 -10 -32 -17 -4 -6 -8 -9 -8 -5 0 3 -26 -1 -57 -9 -32 -8 -66 -17 -75
-19 -10 -2 -28 -6 -40 -9 -13 -3 -38 -8 -57 -11 -18 -3 -43 -8 -55 -10 -22 -5
-108 -16 -141 -18 -11 -1 -25 -5 -32 -9 -6 -4 -14 -3 -18 2 -3 6 -15 7 -28 2
-39 -15 -469 -3 -557 15 -14 3 -41 7 -60 10 -52 6 -64 9 -75 15 -5 4 -20 5
-32 4 -13 -1 -23 2 -23 6 0 4 -9 6 -20 4 -11 -2 -20 -1 -20 3 0 4 -8 8 -18 9
-10 1 -49 12 -87 24 -39 12 -76 22 -82 22 -7 0 -13 5 -13 10 0 6 -3 8 -6 4 -6
-5 -68 13 -109 33 -23 10 -86 36 -97 39 -56 14 -482 266 -508 300 -3 4 -18 17
-34 29 -103 79 -366 335 -366 356 0 2 -13 19 -29 38 -17 18 -57 71 -90 118
-33 47 -65 90 -71 97 -5 7 -10 15 -10 18 0 4 -13 25 -28 48 -60 89 -186 359
-202 432 -1 6 -5 15 -9 20 -5 6 -16 37 -26 70 -10 33 -23 78 -30 100 -28 88
-67 304 -69 377 -1 27 -3 48 -6 48 -19 0 -16 432 4 560 7 42 18 113 22 145 3
17 8 41 11 55 4 14 8 30 8 35 8 50 71 254 112 360 39 101 147 321 169 346 8 8
14 19 14 23 0 7 36 62 111 171 19 28 36 52 39 55 3 3 21 25 39 49 52 66 98
116 192 210 123 123 147 144 267 232 59 43 113 84 120 89 6 6 12 7 12 3 0 -4
4 -3 8 2 19 28 315 188 326 178 3 -4 6 -1 6 6 0 7 5 9 10 6 6 -3 10 -1 10 4 0
6 3 10 8 9 4 0 14 2 22 5 50 21 76 30 83 29 4 -1 7 3 7 9 0 5 4 8 9 5 4 -3 24
3 44 13 20 10 34 14 30 7 -5 -8 -3 -8 8 0 14 12 129 50 173 58 11 2 40 9 64
15 24 7 57 14 75 16 18 3 52 8 77 13 25 5 56 8 68 7 12 -1 22 1 22 4 0 7 67
14 138 14 23 0 42 3 42 6 0 5 209 6 230 1z"/>
<path d="M4186 8253 c-1 -1 -13 -5 -27 -7 -13 -2 -25 -5 -26 -7 -2 -1 -7 -3
-13 -4 -5 -1 -12 -3 -14 -4 -2 0 0 -18 5 -38 5 -21 12 -49 15 -63 3 -14 23
-95 44 -180 21 -85 41 -166 44 -180 3 -14 16 -70 30 -125 14 -55 27 -111 30
-125 3 -14 9 -40 15 -57 5 -18 8 -33 6 -33 -2 0 2 -18 10 -40 8 -22 14 -42 14
-45 1 -8 8 -37 46 -199 l36 -149 -28 -31 c-15 -17 -33 -35 -38 -41 -6 -5 -25
-32 -43 -60 -17 -27 -32 -45 -32 -39 0 6 -24 63 -54 125 -29 63 -66 141 -81
174 -15 33 -46 98 -69 145 -22 47 -41 87 -41 90 -1 3 -16 35 -33 73 -18 37
-46 97 -63 135 -113 245 -117 250 -134 222 -3 -5 -12 -7 -19 -4 -7 3 -16 -2
-19 -10 -4 -9 -16 -16 -28 -16 -29 0 -23 -22 52 -178 32 -68 59 -126 59 -127
0 -2 22 -50 49 -107 54 -113 102 -216 151 -323 18 -38 50 -107 71 -153 21 -45
39 -85 40 -90 1 -4 10 -23 20 -42 11 -19 19 -40 19 -47 0 -9 -50 -12 -197 -12
-109 0 -220 0 -247 0 l-49 -1 7 -137 c3 -76 8 -150 11 -165 3 -16 7 -38 9 -50
17 -103 54 -236 86 -313 23 -57 107 -225 129 -260 121 -188 232 -312 412 -457
126 -101 402 -239 548 -274 9 -2 45 -11 81 -20 36 -9 79 -18 95 -19 17 -2 30
-4 30 -5 0 -4 179 -19 260 -22 18 0 169 12 210 18 157 22 391 93 500 152 17 9
56 30 88 47 241 129 502 392 644 653 40 72 108 226 119 267 1 6 12 45 24 87
24 89 25 94 45 213 9 57 18 243 12 267 l-6 23 -190 -2 c-202 -3 -202 -3 -209
47 -8 70 -69 219 -112 274 -99 128 -251 239 -377 277 -24 7 -43 16 -43 21 0 5
-4 7 -9 4 -4 -3 -32 1 -60 8 -52 13 -250 14 -316 2 -43 -9 -69 -14 -75 -16 -3
-1 -9 -2 -14 -1 -4 1 -14 -3 -21 -9 -7 -6 -17 -10 -21 -8 -5 1 -31 -9 -59 -22
-27 -13 -53 -23 -57 -22 -5 1 -8 -3 -8 -8 0 -6 -6 -10 -14 -10 -8 0 -16 -3
-18 -7 -1 -5 -23 -21 -47 -37 l-44 -28 -86 26 c-219 67 -461 43 -653 -65 l-46
-27 -32 127 c-17 69 -32 133 -34 141 -6 30 -19 83 -50 205 -9 33 -20 81 -25
105 -5 25 -17 74 -26 110 -9 36 -18 72 -20 80 -2 8 -15 65 -30 125 -15 61 -28
115 -29 120 -1 6 -10 45 -20 87 -16 64 -22 76 -38 75 -10 -1 -20 -3 -22 -4z
m1744 -1057 c167 -20 354 -133 445 -266 47 -69 80 -148 91 -216 l5 -32 -377 2
-378 1 -7 28 c-10 35 -67 146 -85 165 -8 7 -14 17 -14 21 0 11 -130 138 -164
160 l-29 19 39 24 c73 45 181 83 260 92 26 3 48 7 50 8 4 5 109 1 164 -6z
m-812 -127 c31 -6 68 -16 82 -22 14 -6 27 -11 30 -12 105 -35 258 -162 305
-252 11 -21 23 -40 27 -43 3 -3 9 -17 13 -32 l7 -26 -617 0 -617 0 7 25 c9 37
65 121 116 175 79 83 221 163 327 183 9 2 17 4 17 5 0 1 18 3 39 6 22 2 41 5
43 7 7 8 166 -2 221 -14z m1721 -519 l34 0 -6 -67 c-7 -73 -16 -129 -24 -153
-3 -8 -7 -29 -9 -46 -10 -97 -110 -342 -190 -467 -24 -37 -44 -70 -44 -72 0
-12 -150 -186 -166 -192 -8 -3 -14 -11 -14 -19 0 -8 -3 -14 -7 -14 -5 0 -26
-17 -48 -38 -54 -52 -175 -143 -227 -172 -133 -72 -200 -104 -289 -135 -55
-19 -103 -34 -107 -33 -4 1 -20 -4 -35 -10 -27 -12 -95 -23 -149 -26 -16 0
-28 -4 -28 -7 0 -12 -267 -16 -355 -4 -97 13 -106 14 -190 33 -120 28 -282 93
-413 167 -127 71 -318 235 -418 360 -185 228 -301 514 -330 810 -3 33 -7 65
-8 70 0 6 22 12 49 15 36 4 2604 4 2974 0z"/>
<path d="M6045 3468 c-49 -26 -75 -71 -75 -134 l0 -51 -42 1 c-41 1 -43 -1
-46 -30 -3 -28 0 -31 25 -32 69 0 63 20 63 -221 l0 -219 33 1 32 2 0 218 c0
137 4 217 10 218 6 0 39 1 75 2 60 2 65 4 68 26 5 32 -7 37 -86 35 l-68 -3 2
32 c1 18 3 40 3 50 2 31 38 57 82 57 22 0 49 -5 60 -10 16 -9 21 -7 28 12 8
22 -6 61 -19 54 -3 -2 -28 0 -57 3 -40 6 -59 3 -88 -11z"/>
<path d="M4739 3461 c0 -9 -2 -24 -4 -34 -4 -23 34 -48 63 -40 26 6 40 48 25
72 -14 22 -83 24 -84 2z"/>
<path d="M7846 3340 c1 -77 -3 -140 -7 -140 -5 0 -9 4 -9 10 0 17 -73 56 -125
66 -170 33 -308 -93 -292 -267 13 -146 117 -233 267 -224 62 3 92 17 143 64
l29 26 -3 -35 c-4 -46 7 -61 39 -57 l27 4 0 344 0 344 -35 3 -35 3 1 -141z
m-127 -126 c41 -8 106 -70 116 -109 11 -41 15 -108 7 -120 -4 -5 -7 -14 -7
-20 -2 -25 -43 -76 -77 -95 -37 -21 -113 -33 -133 -21 -5 3 -18 7 -28 8 -60
10 -115 91 -115 171 0 55 16 112 31 112 4 0 6 4 3 9 -6 9 24 32 74 58 27 14
79 17 129 7z"/>
<path d="M2812 3451 l-24 -6 1 -275 c0 -151 0 -301 1 -332 l0 -58 33 3 c17 1
30 5 28 7 -2 3 1 14 7 26 8 16 8 24 0 32 -7 7 -8 12 -2 12 6 0 8 23 4 60 -3
33 -3 60 0 60 3 0 3 27 0 60 -3 33 -3 60 0 60 3 0 4 51 2 112 -3 111 -3 112
15 88 21 -29 51 -66 76 -92 9 -10 17 -21 17 -26 0 -4 10 -18 23 -32 12 -14 38
-45 57 -70 19 -25 45 -56 57 -70 13 -14 23 -27 23 -31 0 -3 18 -25 40 -50 22
-24 40 -47 40 -51 0 -4 14 -21 30 -38 17 -17 30 -35 30 -40 0 -12 37 -22 58
-16 16 6 17 29 17 336 l0 330 -35 0 -36 0 1 -252 c1 -139 -1 -258 -3 -265 -3
-11 -60 56 -152 177 -14 18 -33 43 -42 54 -10 12 -65 80 -122 153 -58 72 -109
133 -113 136 -4 2 -19 1 -31 -2z"/>
<path d="M3645 3273 c-62 -15 -125 -45 -125 -58 1 -5 7 -19 16 -30 12 -16 17
-17 32 -7 52 37 177 54 221 30 36 -19 59 -58 63 -103 l3 -40 -105 -2 c-158 -3
-198 -16 -228 -76 -53 -105 21 -199 158 -203 36 -1 70 1 75 4 6 4 15 7 22 8 6
1 28 14 47 29 32 24 36 25 35 9 -4 -42 1 -51 31 -52 24 0 30 4 31 21 4 86 4
324 0 332 -3 6 -7 19 -8 30 -9 56 -93 113 -173 118 -25 1 -67 -3 -95 -10z
m210 -301 c-4 -50 -17 -75 -53 -101 -60 -42 -158 -44 -201 -4 -30 29 -33 75
-5 110 l23 30 120 2 119 2 -3 -39z"/>
<path d="M4130 3282 c-8 -3 -17 -8 -20 -13 -4 -6 -5 -638 -1 -660 1 -3 14 -6
30 -7 36 -1 37 2 36 149 l-1 117 36 -29 c19 -15 51 -35 70 -43 42 -17 152 -15
175 4 8 7 15 10 15 6 0 -10 53 26 78 54 65 73 82 185 41 280 -25 58 -86 116
-133 126 -17 3 -35 9 -41 12 -15 10 -98 5 -128 -7 -16 -6 -32 -11 -35 -11 -4
0 -22 -13 -40 -30 -18 -16 -35 -30 -36 -30 -2 0 -3 10 -3 23 -1 58 -10 70 -43
59z m334 -93 c35 -24 77 -94 80 -134 6 -73 -41 -162 -100 -190 -38 -18 -110
-27 -129 -16 -5 3 -16 6 -23 7 -25 4 -62 35 -86 72 -62 93 -28 228 69 274 55
26 140 20 189 -13z"/>
<path d="M4755 3282 c-3 -3 -5 -116 -5 -252 l0 -246 33 -2 33 -2 0 51 c-1 28
2 53 6 55 4 3 4 15 0 27 -4 12 -7 99 -6 194 l1 171 -29 4 c-15 3 -30 2 -33 0z"/>
<path d="M5167 3283 c-1 -1 -14 -4 -28 -6 -57 -11 -139 -68 -139 -97 0 -6 -4
-10 -10 -10 -5 0 -10 -6 -10 -12 0 -7 -6 -25 -14 -39 -17 -34 -14 -142 6 -189
18 -42 67 -100 85 -100 7 0 13 -4 13 -8 0 -14 71 -35 130 -38 65 -4 138 17
180 53 29 24 29 25 13 47 l-17 23 -47 -30 c-71 -43 -167 -41 -235 5 -28 19
-74 96 -74 122 0 3 95 6 211 6 182 0 210 2 206 15 -4 8 -2 17 3 20 4 3 4 20
-2 38 -40 123 -87 172 -188 193 -36 7 -79 11 -83 7z m100 -74 c38 -14 72 -47
89 -88 25 -59 29 -58 -160 -58 l-174 0 4 22 c5 29 25 68 46 89 42 41 135 58
195 35z"/>
<path d="M5600 3282 l-25 -3 2 -222 c1 -122 2 -234 2 -248 1 -22 6 -26 31 -27
17 0 31 2 31 6 1 4 3 71 4 150 3 173 16 218 74 250 21 12 54 23 72 25 32 2 34
5 34 37 0 33 -2 35 -30 32 -48 -6 -124 -42 -130 -63 -10 -31 -23 -21 -20 16 2
40 -9 52 -45 47z"/>
<path d="M6390 3270 c-101 -34 -158 -106 -167 -210 -11 -113 40 -208 136 -253
94 -44 232 -22 298 48 63 67 85 174 55 265 -17 48 -23 58 -64 97 -65 61 -170
83 -258 53z m163 -66 c45 -23 66 -43 84 -82 28 -59 21 -165 -13 -199 -7 -8
-17 -20 -21 -27 -16 -26 -87 -53 -134 -50 -68 3 -117 30 -151 83 -26 41 -29
53 -26 112 4 80 33 129 93 158 49 24 125 26 168 5z"/>
<path d="M6990 3271 c-28 -7 -50 -17 -50 -22 0 -5 -6 -9 -14 -9 -23 0 -81 -75
-97 -127 -39 -124 10 -247 120 -303 49 -24 167 -36 189 -18 6 6 12 8 12 4 0
-12 75 32 104 60 41 41 68 107 68 169 1 52 -29 155 -44 155 -4 0 -8 6 -8 13 0
10 -83 71 -100 73 -3 0 -21 4 -40 9 -52 12 -86 11 -140 -4z m163 -70 c23 -11
49 -28 57 -38 43 -51 55 -147 27 -213 -15 -35 -67 -92 -67 -74 0 5 -4 3 -9 -5
-19 -31 -133 -32 -188 -3 -91 49 -115 207 -45 289 53 62 146 80 225 44z"/>
<path d="M2234 2199 c-21 -7 -21 -10 -18 -286 1 -153 3 -293 3 -311 1 -32 2
-33 39 -30 l37 3 -1 230 c-1 131 2 221 7 210 6 -15 63 -241 94 -370 15 -65 17
-67 70 -67 8 0 20 0 25 1 6 1 10 109 9 306 -1 271 -3 307 -18 313 -9 5 -22 7
-28 6 -7 -1 -18 -2 -23 -3 -7 -1 -10 -70 -10 -192 1 -105 -1 -194 -4 -197 -3
-3 -7 4 -7 16 -1 12 -2 25 -3 30 -2 6 -28 121 -31 132 -10 46 -50 206 -52 209
-5 8 -68 8 -89 0z"/>
<path d="M2588 2202 c-16 -3 -17 -24 -15 -276 2 -240 4 -275 20 -299 26 -41
72 -60 129 -55 56 6 92 34 107 82 7 24 9 447 2 537 -1 15 -6 16 -66 10 -7 -1
-12 -89 -13 -263 -2 -144 -5 -265 -8 -270 -14 -22 -43 -27 -64 -10 -21 17 -21
23 -20 280 0 204 -2 262 -12 263 -7 0 -20 2 -28 3 -8 1 -23 1 -32 -2z"/>
<path d="M2887 2198 c-14 -8 -16 -36 -5 -60 6 -12 18 -16 44 -13 22 2 37 -2
40 -9 3 -7 6 -127 7 -267 1 -140 6 -259 9 -265 8 -12 62 -13 73 -2 3 3 6 128
5 276 l0 271 27 -1 c63 -1 64 0 61 39 l-3 38 -123 0 c-68 0 -128 -3 -135 -7z"/>
<path d="M3206 2195 c-8 -8 -11 -95 -10 -291 1 -153 2 -292 3 -307 1 -27 3
-28 44 -25 l42 3 -2 129 c-2 146 6 151 47 31 58 -170 52 -160 94 -163 21 -2
42 0 46 5 8 8 -9 71 -35 128 -7 17 -23 54 -35 84 l-21 54 22 15 c40 28 58 87
55 182 -3 93 -17 126 -61 150 -31 17 -173 20 -189 5z m154 -95 c18 -34 18
-140 0 -161 -21 -26 -68 -32 -74 -11 -5 15 -9 127 -7 175 1 26 67 24 81 -3z"/>
<path d="M3532 2201 c-5 -3 -10 -143 -11 -318 l-2 -313 40 0 c22 0 41 5 43 13
8 24 10 617 1 618 -41 5 -63 5 -71 0z"/>
<path d="M3653 2193 c-2 -6 -3 -24 -1 -40 3 -25 7 -28 40 -28 20 0 40 -3 44
-8 4 -4 9 -112 10 -240 1 -127 2 -248 3 -268 1 -35 2 -36 36 -34 19 0 38 4 41
8 4 4 7 129 7 277 l0 270 33 -3 c39 -5 49 1 56 29 11 44 -3 49 -138 49 -88 0
-128 -3 -131 -12z"/>
<path d="M3983 2203 c-9 -3 -12 -82 -13 -319 l0 -315 42 3 43 3 3 293 c2 162
1 304 -2 316 -5 21 -41 30 -73 19z"/>
<path d="M4204 2199 c-72 -20 -81 -57 -80 -325 2 -245 5 -257 68 -290 47 -24
132 -15 164 18 37 36 41 71 37 298 -3 167 -7 211 -21 240 -26 54 -97 79 -168
59z m91 -90 c9 -28 15 -434 6 -446 -11 -17 -49 -21 -67 -8 -19 13 -21 47 -24
310 -1 122 1 141 16 152 28 20 62 16 69 -8z"/>
<path d="M4460 2195 c-6 -7 -8 -95 -5 -221 3 -115 6 -243 6 -284 0 -41 3 -82
5 -92 6 -22 29 -29 58 -19 22 9 23 13 20 103 -7 240 -8 337 -1 343 4 3 5 2 3
-1 -2 -3 9 -53 25 -112 16 -59 31 -114 33 -122 28 -107 39 -151 46 -180 9 -34
12 -35 52 -35 l43 0 -1 308 c-1 169 -3 310 -6 313 -5 5 -43 8 -64 5 -8 -1 -11
-57 -9 -192 1 -105 -2 -185 -5 -177 -4 7 -27 90 -50 183 -24 94 -47 174 -52
180 -13 14 -87 14 -98 0z"/>
<path d="M4891 2200 c-5 -3 -12 -27 -16 -55 -4 -27 -9 -59 -11 -70 -5 -22 -13
-83 -19 -130 -2 -16 -6 -43 -9 -60 -3 -16 -8 -50 -11 -75 -3 -25 -12 -84 -19
-133 -15 -104 -13 -108 64 -98 6 0 10 14 10 31 0 16 5 51 11 79 10 50 10 50
50 49 44 0 50 -6 54 -51 4 -49 17 -107 24 -108 3 0 14 -2 25 -4 39 -8 47 4 42
64 -6 67 -24 196 -31 232 -3 14 -8 51 -10 83 -3 31 -6 60 -9 64 -2 4 -7 38
-11 76 -10 106 -13 110 -74 111 -28 0 -55 -2 -60 -5z m73 -225 c3 -38 9 -91
12 -116 7 -50 9 -48 -59 -40 -5 1 -6 20 -2 43 4 24 9 61 11 83 2 22 6 49 8 60
2 11 5 34 6 50 2 49 16 2 24 -80z"/>
<path d="M5151 2196 c-7 -8 -9 -590 -2 -616 0 -3 48 -5 106 -5 76 0 108 4 114
13 9 14 3 61 -8 63 -3 0 -33 1 -66 2 l-60 2 -3 265 c-2 151 -7 269 -13 275
-13 13 -57 14 -68 1z"/>
<path d="M5437 2202 c-16 -3 -17 -26 -16 -313 0 -282 2 -309 17 -310 78 -6
198 -3 204 6 4 5 8 22 8 38 0 29 0 29 -92 30 l-48 0 -1 186 c0 262 -3 344 -12
358 -7 11 -23 13 -60 5z"/>
<path d="M5628 2199 c-15 -8 -15 -14 -1 -66 8 -32 16 -65 18 -74 2 -8 17 -69
35 -135 22 -84 33 -150 36 -224 2 -58 6 -111 9 -117 5 -14 74 -18 76 -5 1 4 2
57 3 117 2 74 10 139 26 200 12 50 24 99 26 110 2 11 8 40 14 65 7 25 13 53
15 63 2 10 7 27 10 37 7 21 -9 34 -43 36 -36 2 -40 -6 -59 -125 -4 -25 -8 -48
-8 -51 -1 -3 -5 -25 -9 -50 -8 -43 -25 -86 -26 -64 0 6 -9 51 -19 100 -11 49
-22 107 -25 129 -4 22 -10 43 -15 48 -12 12 -46 16 -63 6z"/>
<path d="M6195 2198 c-36 -10 -66 -32 -69 -50 -1 -7 -6 -20 -11 -28 -12 -19
-16 -401 -5 -454 5 -22 20 -51 35 -65 21 -22 35 -26 88 -28 57 -1 66 1 95 28
31 29 47 75 40 120 -3 21 -8 24 -43 24 -33 0 -40 -4 -41 -20 -1 -11 -2 -27 -3
-35 -3 -41 -44 -58 -74 -32 -16 14 -18 36 -17 229 1 213 2 214 25 229 32 21
65 4 65 -34 0 -41 13 -54 51 -50 31 3 34 6 37 40 8 92 -76 154 -173 126z"/>
<path d="M6525 2203 c-41 -8 -69 -29 -85 -65 -13 -31 -16 -72 -15 -260 1 -213
2 -226 23 -255 29 -41 71 -57 133 -51 40 4 58 12 82 37 l32 31 -2 229 c-2 247
-8 284 -56 316 -25 16 -76 24 -112 18z m72 -113 c1 -19 2 -37 3 -40 7 -19 7
-378 1 -389 -10 -16 -58 -18 -73 -3 -11 11 -14 59 -18 305 -2 154 3 170 54
165 28 -3 31 -7 33 -38z"/>
<path d="M6764 2198 c-8 -13 -4 -584 5 -618 0 -3 17 -6 36 -6 32 0 35 3 36 31
0 16 1 118 1 225 1 107 3 179 5 160 2 -19 7 -42 10 -50 3 -8 7 -24 8 -35 1
-11 10 -56 19 -100 10 -44 19 -93 21 -109 2 -16 9 -50 16 -75 9 -38 16 -47 35
-49 14 -1 25 5 28 16 7 22 56 289 67 360 4 30 10 56 13 60 3 3 6 -92 6 -210 0
-228 1 -232 46 -223 11 2 22 4 26 4 8 1 4 604 -5 618 -9 15 -95 12 -101 -3 -2
-6 -7 -33 -11 -60 -4 -27 -9 -60 -12 -74 -17 -87 -22 -111 -33 -160 -6 -30
-13 -65 -14 -77 -5 -60 -25 -8 -42 107 -3 19 -7 41 -10 49 -2 8 -7 30 -10 50
-2 20 -11 68 -20 107 l-15 71 -50 -1 c-28 0 -52 -3 -55 -8z"/>
<path d="M7221 2187 c-4 -12 -6 -32 -5 -46 2 -14 4 -149 4 -298 l1 -273 39 0
c34 0 39 3 44 28 4 15 6 63 5 107 -2 132 -4 125 36 125 58 0 104 25 121 65 20
49 24 169 7 227 -18 61 -57 80 -166 83 -71 2 -80 0 -86 -18z m136 -63 c28 -8
34 -25 39 -104 4 -79 -12 -110 -56 -110 -33 0 -30 -12 -34 133 -3 90 0 94 51
81z"/>
<path d="M7550 2195 c-7 -8 -8 -584 -1 -615 0 -3 49 -5 109 -5 l107 0 3 38 c2
20 0 37 -5 38 -4 0 -35 1 -68 2 l-60 2 -3 259 c-1 143 -7 266 -11 275 -11 18
-57 23 -71 6z"/>
<path d="M7824 2195 c-4 -9 1 -617 5 -622 0 0 49 0 109 1 l107 2 3 32 c3 26
-1 34 -20 41 -13 5 -34 7 -48 4 -13 -2 -34 -2 -47 2 -22 5 -23 9 -23 105 l0
100 50 0 c37 0 50 4 51 15 1 8 2 21 3 28 4 24 -16 35 -59 33 l-44 -2 -3 82
c-4 110 -3 114 35 112 92 -2 97 -1 97 37 0 19 -3 35 -7 36 -52 7 -206 3 -209
-6z"/>
<path d="M8071 2195 c-4 -5 -7 -17 -6 -25 1 -8 3 -23 3 -33 2 -14 8 -16 42
-11 35 6 39 4 44 -17 3 -13 5 -40 5 -59 0 -235 5 -470 10 -471 3 -1 22 -2 41
-3 l35 -1 2 260 c1 143 2 267 2 277 1 11 8 15 24 14 43 -5 67 11 67 44 0 16
-3 31 -7 31 -45 7 -256 2 -262 -6z"/>
<path d="M8387 2196 c-5 -15 2 -598 7 -612 3 -8 36 -11 103 -9 54 2 101 3 106
4 4 1 7 17 7 36 0 38 4 36 -90 39 l-44 1 -1 100 0 100 50 5 c48 5 50 6 53 38
2 21 -1 33 -10 34 -18 2 -49 5 -75 7 -20 1 -21 5 -20 94 l2 92 55 2 c30 1 60
2 65 2 14 2 16 71 2 72 -74 7 -207 3 -210 -5z"/>
</g>
</svg>
